# xmcd
#
# Track frame offsets:
# 150
# 15382
# 27614
# 39945
# 50841
# 59493
# 72051
# 81827
# 95250
# 110089
#
# Disc length: 1632 seconds
#
#
# Revision: 0
# Processed by: cddbd v1.4PL0 Copyright (c) Steve Scherf et al.
# Submitted via: FreeRIP 2.51 
#
DISCID=81065e0a
DTITLE=Country Lovin' - Country Lovin'
DYEAR=2002
DGENRE=Country
TTITLE0=Kenny Rogers - For the Good Times
TTITLE1=Lynn Anderson - Stand By your Man
TTITLE2=Willie Nelson- Shelter of Your Arms
TTITLE3=Dolly Parton - It Wasn't God Who Made Honky Tonk Angels
TTITLE4=Waylon Jennings - Loves gonna Live Here
TTITLE5=Jack Greene - All The Time
TTITLE6=Kitty Wells - Love Makes The World Go Around
TTITLE7=David Houston - Almost Persuaded
TTITLE8=Don Gibson - Woman
TTITLE9=Freddy Fender - Before the Next Teardrop Falls
EXTD=2002
EXTT0=
EXTT1=
EXTT2=
EXTT3=
EXTT4=
EXTT5=
EXTT6=
EXTT7=
EXTT8=
EXTT9=
PLAYORDER=
